<?xml version="1.0" encoding="utf-8"?>
<!-- Generator: Adobe Illustrator 21.0.0, SVG Export Plug-In . SVG Version: 6.00 Build 0)  -->
<svg version="1.1" id="Layer_1" xmlns="http://www.w3.org/2000/svg" xmlns:xlink="http://www.w3.org/1999/xlink" x="0px" y="0px"
	 viewBox="0 0 300 300" style="enable-background:new 0 0 300 300;" xml:space="preserve">
<style type="text/css">
	.st0{fill:#FFFFFF;}
	.st1{fill:#CCCCCC;}
	.st2{clip-path:url(#SVGID_2_);}
	.st3{clip-path:url(#SVGID_4_);fill:#E29C33;}
	.st4{clip-path:url(#SVGID_4_);}
	.st5{clip-path:url(#SVGID_4_);fill:#D9E021;}
	.st6{clip-path:url(#SVGID_6_);fill:#789596;}
	.st7{clip-path:url(#SVGID_6_);}
	.st8{clip-path:url(#SVGID_6_);fill:#FFFFFF;}
	.st9{clip-path:url(#SVGID_8_);fill:#E29C33;}
	.st10{clip-path:url(#SVGID_8_);}
	.st11{clip-path:url(#SVGID_8_);fill:#FCEE21;}
	.st12{clip-path:url(#SVGID_8_);fill:#FFFFFF;}
	.st13{clip-path:url(#SVGID_8_);fill:#65330D;}
	.st14{clip-path:url(#SVGID_8_);fill:#8C6239;}
	.st15{clip-path:url(#SVGID_8_);fill:#D9E021;}
	.st16{clip-path:url(#SVGID_8_);fill:none;stroke:#9E005D;stroke-width:6;stroke-miterlimit:10;}
	.st17{clip-path:url(#SVGID_8_);fill:none;stroke:#ED1C24;stroke-width:4;stroke-miterlimit:10;}
	.st18{clip-path:url(#SVGID_8_);fill:#B1DCE0;}
</style>
<g>
	<g>
		<path d="M268.3,148.9c0-65.3-53-118.3-118.3-118.3c-65.3,0-118.3,53-118.3,118.3c0,65.3,53,118.3,118.3,118.3
			C215.3,267.3,268.3,214.3,268.3,148.9"/>
		<path class="st0" d="M258.8,148.9C258.8,88.9,210,40.2,150,40.2c-60.1,0-108.8,48.7-108.8,108.8c0,60.1,48.7,108.8,108.8,108.8
			C210,257.7,258.8,209,258.8,148.9"/>
		<path class="st1" d="M81.8,102.5c0-3-2.4-5.5-5.5-5.5c-3,0-5.5,2.4-5.5,5.5c0,3,2.4,5.5,5.5,5.5C79.3,108,81.8,105.5,81.8,102.5"
			/>
		<path class="st1" d="M78.4,119.2c0-4.9-4-8.9-8.9-8.9c-4.9,0-8.9,4-8.9,8.9c0,4.9,4,8.9,8.9,8.9C74.4,128.1,78.4,124.1,78.4,119.2
			"/>
		<path class="st1" d="M89.7,113.1c0-2.1-1.7-3.8-3.8-3.8c-2.1,0-3.8,1.7-3.8,3.8c0,2.1,1.7,3.8,3.8,3.8
			C88,116.9,89.7,115.2,89.7,113.1"/>
	</g>
	<g>
		<defs>
			<path id="SVGID_1_" d="M31.6,148.9c0,65.3,53,118.3,118.3,118.3c65.3,0,118.3-53,118.3-118.3c0-65.3-53-118.3-118.3-118.3
				C84.6,30.6,31.6,83.6,31.6,148.9"/>
		</defs>
		<clipPath id="SVGID_2_">
			<use xlink:href="#SVGID_1_"  style="overflow:visible;"/>
		</clipPath>
		<path class="st2" d="M287.7,128.9c0-50.5-41.4-91.5-92.5-91.5c-51.1,0-92.5,41-92.5,91.5c0,50.5,41.4,91.5,92.5,91.5
			C246.3,220.4,287.7,179.4,287.7,128.9"/>
	</g>
	<g>
		<defs>
			<rect id="SVGID_3_" width="300" height="300"/>
		</defs>
		<clipPath id="SVGID_4_">
			<use xlink:href="#SVGID_3_"  style="overflow:visible;"/>
		</clipPath>
		<path class="st3" d="M151.1,94.7c-13.3,0-24.2-10.8-24.2-24.2s10.8-24.2,24.2-24.2c13.3,0,24.2,10.8,24.2,24.2
			S164.5,94.7,151.1,94.7"/>
		<path class="st4" d="M151.1,48.4c12.2,0,22.2,9.9,22.2,22.2c0,12.2-9.9,22.2-22.2,22.2c-12.2,0-22.2-9.9-22.2-22.2
			C129,58.3,138.9,48.4,151.1,48.4 M151.1,44.4c-14.4,0-26.2,11.7-26.2,26.2c0,14.4,11.7,26.2,26.2,26.2c14.4,0,26.2-11.7,26.2-26.2
			C177.3,56.1,165.6,44.4,151.1,44.4"/>
		<path class="st5" d="M173.2,70.5c0-12.2-10.2-22.2-22.2-22.2s-12,44.3,0,44.3S173.2,82.8,173.2,70.5"/>
	</g>
	<g>
		<defs>
			<path id="SVGID_5_" d="M41.2,150.1c0,60.1,48.7,108.8,108.8,108.8c60.1,0,108.8-48.7,108.8-108.8C258.8,90,210,41.3,150,41.3
				C89.9,41.3,41.2,90,41.2,150.1"/>
		</defs>
		<clipPath id="SVGID_6_">
			<use xlink:href="#SVGID_5_"  style="overflow:visible;"/>
		</clipPath>
		<rect x="122" y="148" class="st6" width="25" height="122"/>
		<path class="st7" d="M145,268h-21V151h21V268z M150,146h-5.1h-20.5H119v4.6v117.1v5.3h5.4h20.5h5.1v-5.3V150.6V146z"/>
		<rect x="153" y="148" class="st6" width="25" height="122"/>
		<path class="st7" d="M176,268h-21V151h21V268z M181,146h-5.4h-20.5H150v4.6v117.1v5.3h5.1h20.5h5.4v-5.3V150.6V146z"/>
		<path class="st8" d="M145,268h-21V151h21V268z M148,148h-3.1h-20.5H121v2.6v117.1v3.3h3.4h20.5h3.1v-3.3V150.6V148z"/>
		<path class="st8" d="M176,268h-21V151h21V268z M179,148h-3.4h-20.5H152v2.6v117.1v3.3h3.1h20.5h3.4v-3.3V150.6V148z"/>
	</g>
	<g>
		<defs>
			<rect id="SVGID_7_" width="300" height="300"/>
		</defs>
		<clipPath id="SVGID_8_">
			<use xlink:href="#SVGID_7_"  style="overflow:visible;"/>
		</clipPath>
		<path class="st9" d="M66,139h171v47.6c-3-3.6-6-7.9-11.4-12.3c-11.3-9.2-33.4-20.4-74.3-21.4c-41,0.9-62.9,12.1-74.2,21.4
			c-5.4,4.4-9.1,8.7-11.1,12.3V139z"/>
		<path class="st10" d="M235,141v39.5c-2-2.5-4.9-5.2-8.1-7.8c-16.8-13.7-42.3-21-75.5-21.8l-0.1,0l-0.1,0
			c-33.3,0.8-58.5,8.1-75.3,21.8c-3.3,2.7-5.8,5.3-7.8,7.8V141h85.4H235 M239,137h-85.6H64v58.3c0,0,9.5-38.6,87.5-40.4
			c78,1.8,87.5,40.4,87.5,40.4V137z"/>
		<path class="st11" d="M152.2,143c0,0-3.8,2.1,2.4,5.5C79.9,149.8,71,172.3,71,172.3V143H152.2z"/>
		<path class="st12" d="M233,141v37.2c-2-3-5.5-6.8-10.7-10.4c-15.9-11.1-39.8-16.8-71.5-17.8h0h0c-31.7,1-55.9,6.7-71.8,17.8
			c-5.2,3.6-8,7.4-11,10.4V141h85H233 M235,139h-82H66v46.9c0,0,9.1-32.1,84.5-33.5c75.4,1.4,84.5,33.5,84.5,33.5V139z"/>
		<rect x="138" y="78" class="st13" width="25" height="62"/>
		<path class="st12" d="M162,139h-23V79h23V139z M164,77h-1.6h-23.6H137v2.1v59.8v2.1h1.8h23.6h1.6v-2.1V79.1V77z"/>
		<polygon class="st14" points="150.1,98 142,96 142.3,128.1 150.6,129.4 		"/>
		<path class="st9" d="M151.1,93.7c-12.8,0-23.2-10.4-23.2-23.2c0-12.8,10.4-23.2,23.2-23.2c12.8,0,23.2,10.4,23.2,23.2
			C174.3,83.3,163.9,93.7,151.1,93.7"/>
		<path class="st12" d="M151.1,48.4c12.2,0,22.2,9.9,22.2,22.2c0,12.2-9.9,22.2-22.2,22.2c-12.2,0-22.2-9.9-22.2-22.2
			C129,58.3,138.9,48.4,151.1,48.4 M151.1,46.4c-13.3,0-24.2,10.8-24.2,24.2s10.8,24.2,24.2,24.2c13.3,0,24.2-10.8,24.2-24.2
			S164.5,46.4,151.1,46.4"/>
		<path class="st15" d="M133,70.5c0-10.5,8.6-19.1,19.3-19.1c10.6,0,9.6,37.2-1,37.2C140.6,88.7,133,81.1,133,70.5"/>
		<path class="st16" d="M133.9,133.7c-4.6,0.5-6.4,0.2-6.4,2c0,1.4,10,3.3,22.3,3.3h-0.3c12.3,0,22.3-1.9,22.3-3.3
			c0-1.8-1.9-1.1-6.4-1.6"/>
		<path class="st17" d="M133.9,130.8c-4.6,0.5-6.4,1.1-6.4,2.9c0,1.4,10,4.3,22.3,4.3h-0.3c12.3,0,22.3-2.9,22.3-4.3
			c0-1.8,0.1-1.6-4.4-2"/>
		<path class="st16" d="M133.9,129.4c-4.6,0.5-5.4,0.4-5.4,2.1c0,1.4,10,3.5,22.3,3.5h-0.3c12.3,0,22.3-2.1,22.3-3.5
			c0-1.8-0.9-2-5.4-1.7"/>
		<path class="st17" d="M133.9,126.5c-4.4,0-5.4,1.3-5.4,3.1c0,1.4,10,4.5,22.3,4.5h-0.3c12.3,0,22.3-3.1,22.3-4.5
			c0-1.8-0.8-2.1-5.4-2.1"/>
		<path class="st18" d="M127,214v-53.1c0,0,7.4-2.8,8.6-1.3c1.2,1.4-0.1,54.3-0.1,54.3L127,214z"/>
		<path class="st18" d="M173,214v-53.1c0,0-7.3-2.8-8.5-1.3c-1.2,1.4,0.1,54.3,0.1,54.3L173,214z"/>
		<path class="st18" d="M142,214v-53.1c0,0-2.6-2.8-3-1.3c-0.5,1.4-0.1,54.3-0.1,54.3L142,214z"/>
		<path class="st18" d="M158,214v-53.1c0,0,2.4-2.8,2.9-1.3c0.5,1.4,0.1,54.3,0.1,54.3L158,214z"/>
	</g>
</g>
</svg>
